PathFileType	4	(X/Y/Z)
DataRate	CameraRate	NumFrames	NumMarkers	Units	OrigDataRate	OrigDataStartFrame	OrigNumFrames	
  100.0	  100.0	    5	     56	     mm	  100.0	      642	    855
Frame#	Time	LASI			RASI			LPSI			RPSI			RTH1			RTH2			RTH3			RLFC			RMFC			LTH1			LTH2			LTH3			LLFC			LMFC			RTB1			RTB2			RTB3			RLMAL			RMMAL			LTB1			LTB2			LTB3			LMMAL			LLMAL			RCAL			RTOE			RMT5			LCAL			LTOE			LMT5			LACR			RACR			CLAV			C7			LASH			LPSH			RASH			RPSH			RUA1			RUA2			RUA3			RLEL			RMEL			LUA1			LUA2			LUA3			LLEL			LMEL			RFAsuperior			RFAradius			RFAulna			LFAsuperior			LFAradius			LFAulna			RHJC			LHJC			
		X1	Y1	Z1	X2	Y2	Z2	X3	Y3	Z3	X4	Y4	Z4	X5	Y5	Z5	X6	Y6	Z6	X7	Y7	Z7	X8	Y8	Z8	X9	Y9	Z9	X10	Y10	Z10	X11	Y11	Z11	X12	Y12	Z12	X13	Y13	Z13	X14	Y14	Z14	X15	Y15	Z15	X16	Y16	Z16	X17	Y17	Z17	X18	Y18	Z18	X19	Y19	Z19	X20	Y20	Z20	X21	Y21	Z21	X22	Y22	Z22	X23	Y23	Z23	X24	Y24	Z24	X25	Y25	Z25	X26	Y26	Z26	X27	Y27	Z27	X28	Y28	Z28	X29	Y29	Z29	X30	Y30	Z30	X31	Y31	Z31	X32	Y32	Z32	X33	Y33	Z33	X34	Y34	Z34	X35	Y35	Z35	X36	Y36	Z36	X37	Y37	Z37	X38	Y38	Z38	X39	Y39	Z39	X40	Y40	Z40	X41	Y41	Z41	X42	Y42	Z42	X43	Y43	Z43	X44	Y44	Z44	X45	Y45	Z45	X46	Y46	Z46	X47	Y47	Z47	X48	Y48	Z48	X49	Y49	Z49	X50	Y50	Z50	X51	Y51	Z51	X52	Y52	Z52	X53	Y53	Z53	X54	Y54	Z54	X55	Y55	Z55	X56	Y56	Z56	

673	6.73000	900.41838	1084.79837	-485.51102	660.22369	1092.66383	-491.27344	830.07322	1112.47008	-655.53972	745.31485	1111.43269	-657.64126	603.51440	834.33470	-588.31850	620.30745	760.34392	-519.45947	618.38688	663.57776	-595.13958	616.39597	543.96806	-580.56651	728.93385	526.17749	-592.71739	949.71721	866.10854	-597.99814	956.23530	753.82018	-533.16134	944.65843	656.47946	-593.70067	943.61405	535.85176	-574.51212	834.63148	522.83414	-591.11225	651.99607	410.81655	-560.19525	612.67881	357.56570	-608.08587	661.34232	229.71334	-586.73409	653.01346	119.00679	-632.68884	729.13636	140.26416	-601.80895	917.95518	418.89112	-561.37630	929.88931	320.25956	-647.88072	888.77851	229.94271	-581.32416	809.69174	126.93078	-596.01545	890.97779	110.22499	-622.48820	721.23322	98.06800	-683.59077	675.88693	73.89256	-461.52038	610.54070	55.17345	-539.85737	831.23362	87.05488	-680.61360	853.77380	76.43779	-454.58731	920.33318	56.07534	-515.58411	934.28403	1590.85324	-589.69897	636.95273	1563.13599	-588.26000	760.71355	1518.04295	-508.78416	782.46288	1597.44875	-631.92942	920.41236	1541.89882	-521.98082	956.03609	1533.17082	-649.26560	642.18062	1523.63643	-528.04798	611.36319	1528.46130	-642.64891	560.16206	1422.14939	-514.33263	566.03688	1334.47095	-516.02878	540.74752	1306.22214	-454.19461	527.19877	1259.50772	-400.17375	610.83506	1240.32731	-421.87599	1007.78496	1443.38994	-558.23647	990.13475	1343.48900	-524.99693	1028.04494	1330.56840	-461.90805	1043.04406	1266.02276	-413.01173	959.97539	1248.47598	-427.88182	525.77631	1197.15533	-351.48583	559.86634	1112.13543	-168.17425	533.57097	1064.93551	-209.53130	1045.40482	1179.37923	-367.67958	1032.96055	1099.83702	-206.54125	1062.07005	1059.88037	-253.84817	678.76721	989.14807	-570.39731	884.96842	980.26730	-561.82547	
674	6.74000	900.54800	1084.73365	-486.28749	660.33368	1092.62175	-491.58332	830.18918	1112.48291	-655.85871	745.44893	1111.46094	-657.94800	603.74970	834.30866	-588.67181	620.41558	760.53284	-519.45346	618.69525	663.71704	-595.61467	616.39609	543.98181	-580.74615	728.99632	526.19220	-592.91449	949.72714	866.05679	-598.20643	956.41600	753.82705	-533.55363	944.59908	656.43530	-593.88284	943.70992	535.85505	-574.78207	834.63835	522.68429	-591.56439	652.05851	410.81056	-560.41424	612.71266	357.62032	-608.11114	661.39010	229.69102	-586.86781	653.01330	119.00273	-632.69358	729.13176	140.25722	-601.82408	918.09563	418.90282	-561.63587	929.88731	320.22757	-648.10984	888.81267	229.96507	-581.40142	809.73604	126.99102	-595.97163	890.97544	110.21377	-622.51412	721.24076	98.06981	-683.59516	675.89419	73.86840	-461.49341	610.54460	55.16848	-539.85783	831.24374	87.07480	-680.64459	853.78936	76.43466	-454.56129	920.35889	56.05621	-515.58155	934.20396	1590.77583	-589.91289	637.05986	1563.15763	-588.45563	760.71013	1518.02934	-508.96395	782.49986	1597.34784	-632.22822	920.13712	1542.00859	-522.15132	956.16047	1533.14062	-649.36776	642.37144	1523.93527	-528.26898	611.30154	1528.56509	-642.82860	559.50395	1423.41836	-513.64822	565.24231	1335.82679	-514.45015	539.40317	1308.41505	-451.99964	525.45940	1262.60257	-397.26257	609.06781	1242.48334	-418.78507	1008.11751	1444.17646	-557.38134	991.34160	1344.62104	-522.78209	1029.23299	1332.72875	-459.36071	1044.49539	1268.95180	-409.45457	961.80639	1250.43056	-424.70984	523.59764	1200.76859	-347.90859	558.52481	1116.36026	-164.40709	530.71252	1069.73948	-205.19716	1047.45244	1182.87590	-363.16241	1034.35890	1104.87257	-201.39804	1064.72015	1064.90768	-247.83453	678.85547	989.17569	-570.93499	885.04663	980.21746	-562.36105	
675	6.75000	900.62030	1084.59810	-487.18417	660.42776	1092.59232	-491.92972	830.31528	1112.49397	-656.19174	745.58453	1111.48324	-658.26378	603.94627	834.25434	-589.07834	620.52578	760.78156	-519.43904	618.83094	663.74403	-595.97574	616.38702	544.01456	-580.90922	729.03959	526.19851	-593.11006	949.75931	866.02454	-598.45817	956.58570	753.84408	-533.95232	944.61727	656.41927	-594.17159	943.80335	535.86760	-575.06856	834.64511	522.57912	-591.88696	652.14053	410.83280	-560.63347	612.77665	357.74496	-608.11508	661.40764	229.70925	-586.91818	653.02053	118.99414	-632.72989	729.13042	140.25453	-601.83389	918.21555	418.91379	-561.85019	929.88663	320.19708	-648.31879	888.84686	229.95636	-581.48108	809.82180	127.01385	-595.97246	890.97445	110.20683	-622.53783	721.25127	98.07690	-683.59899	675.90320	73.84573	-461.45207	610.53697	55.17374	-539.86574	831.25254	87.09779	-680.67282	853.80012	76.42900	-454.55346	920.38406	56.03856	-515.58501	934.13369	1590.75995	-590.20714	637.17892	1563.22407	-588.70642	760.73905	1518.04008	-509.21028	782.56113	1597.27955	-632.55993	919.91200	1542.21355	-522.36655	956.29587	1533.16910	-649.51173	642.56818	1524.30891	-528.48223	611.22818	1528.72395	-643.02058	558.77602	1424.86172	-512.93034	564.30530	1337.36485	-512.70139	537.91258	1310.82911	-449.73274	523.60400	1265.94579	-394.30735	607.09448	1244.84490	-415.59477	1008.57560	1445.09838	-556.55012	992.75370	1345.94552	-520.48822	1030.60356	1335.17204	-456.73526	1046.13148	1272.18494	-405.66910	963.85565	1252.69158	-421.28957	521.15151	1204.68953	-344.25478	556.64241	1121.05013	-160.47810	526.31188	1075.39658	-200.12995	1049.80305	1186.78445	-358.45017	1036.21610	1110.48567	-196.03462	1067.82396	1070.48442	-241.53249	678.88243	989.23455	-571.57390	885.05481	980.10893	-562.95688	
676	6.76000	900.67221	1084.42829	-487.96139	660.50936	1092.59347	-492.30000	830.44390	1112.50886	-656.53038	745.72446	1111.49579	-658.60116	604.07827	834.22175	-589.57333	620.60783	761.00524	-519.52131	618.73801	663.70634	-596.14933	616.40657	544.07593	-581.07227	729.06900	526.19914	-593.30263	949.83459	866.03680	-598.80486	956.73880	753.86983	-534.31726	944.68204	656.42537	-594.50866	943.89214	535.89092	-575.36625	834.67637	522.54966	-592.04824	652.18266	410.88798	-560.78952	612.84401	357.88702	-608.15674	661.41844	229.75285	-586.94479	653.04038	118.99559	-632.76930	729.12983	140.25702	-601.83123	918.31409	418.92858	-561.99876	929.88880	320.17305	-648.49551	888.88018	229.94059	-581.55128	809.97235	126.99999	-595.98272	890.97571	110.20498	-622.55291	721.26112	98.08654	-683.59768	675.91123	73.82300	-461.41977	610.52084	55.18551	-539.87867	831.25440	87.11316	-680.68157	853.80725	76.41979	-454.57360	920.40719	56.02297	-515.59604	934.06573	1590.81845	-590.57552	637.29775	1563.32107	-589.01673	760.80229	1518.07491	-509.53177	782.63274	1597.26311	-632.96773	919.69439	1542.52682	-522.63542	956.42593	1533.24512	-649.68184	642.76690	1524.72982	-528.64316	611.14202	1528.92311	-643.20117	557.96997	1426.47883	-512.18962	563.11593	1339.05930	-510.71922	536.27138	1313.52541	-447.32509	521.57694	1269.52114	-391.30316	604.86832	1247.44237	-412.36556	1009.08896	1446.15792	-555.65320	994.30780	1347.47655	-518.07552	1032.12774	1337.91108	-454.02948	1047.99678	1275.78960	-401.79176	966.05008	1255.29871	-417.54888	518.43631	1208.96263	-340.48101	554.22119	1126.25758	-156.34910	520.91279	1081.73110	-194.53868	1052.42687	1191.13868	-353.53727	1038.51595	1116.70782	-190.37288	1071.35789	1076.64685	-234.93203	678.87949	989.31065	-572.18839	885.03148	979.97631	-563.51262	
677	6.77000	900.72310	1084.28358	-488.51933	660.57776	1092.63026	-492.68462	830.56656	1112.52957	-656.86415	745.86333	1111.50049	-658.96413	604.13210	834.27244	-590.13270	620.64909	761.14160	-519.75172	618.61643	663.76732	-596.33252	616.47655	544.16554	-581.25903	729.09184	526.19958	-593.48607	949.93863	866.08993	-599.22102	956.87256	753.90126	-534.62667	944.73920	656.43919	-594.80745	943.96740	535.92190	-575.64167	834.72587	522.57757	-592.13780	652.15116	410.97154	-560.85521	612.87847	357.95816	-608.30672	661.42411	229.78690	-587.04842	653.06453	119.00907	-632.79419	729.12391	140.26166	-601.81930	918.39622	418.95332	-562.11340	929.89588	320.15771	-648.64137	888.90813	229.94564	-581.60352	810.13881	126.97239	-595.97607	890.97884	110.20681	-622.55701	721.26541	98.09585	-683.58848	675.91455	73.79973	-461.40624	610.50534	55.19547	-539.89284	831.24617	87.11590	-680.66290	853.81359	76.40842	-454.59831	920.42498	56.00946	-515.60375	933.98398	1590.95399	-590.99196	637.41783	1563.44035	-589.37359	760.88735	1518.14068	-509.89460	782.69146	1597.29563	-633.42678	919.44675	1542.94971	-522.94052	956.53837	1533.36268	-649.86057	642.97797	1525.19193	-528.74626	611.05678	1529.14064	-643.36902	557.09633	1428.26022	-511.42647	561.70830	1340.90952	-508.57388	534.50527	1316.52143	-444.81679	519.34942	1273.35059	-388.24387	602.36650	1250.29212	-409.09470	1009.62248	1447.36820	-554.66155	995.93000	1349.22474	-515.54046	1033.78653	1340.95260	-451.25413	1050.11298	1279.83454	-397.95792	968.40223	1258.26257	-413.53285	515.52008	1213.62206	-336.59290	551.29150	1132.01291	-151.97861	515.48894	1088.41619	-188.86276	1055.30032	1195.95782	-348.42897	1041.21434	1123.56046	-184.39444	1075.27874	1083.43846	-228.01576	678.87824	989.38852	-572.70908	885.01418	979.86549	-563.97080	
